<?xml version="1.0" standalone="no"?>
<!DOCTYPE svg PUBLIC "-//W3C//DTD SVG 1.1//EN" "http://www.w3.org/Graphics/SVG/1.1/DTD/svg11.dtd">
<svg width="89mm" height="59mm" viewBox="-2 -57 89 59" xmlns="http://www.w3.org/2000/svg" version="1.1">
<title>OpenSCAD Model</title>
<path d="
M 85.3748,1.96457 L 85.618,1.9021 L 85.8515,1.80965 L 86.0717,1.68864 L 86.2748,1.54102 L 86.4579,1.36908
 L 86.618,1.17557 L 86.7526,0.963501 L 86.8595,0.736237 L 86.9372,0.497375 L 86.9842,0.250656 L 87,-0
 L 87,-55 L 86.9842,-55.2507 L 86.9372,-55.4974 L 86.8595,-55.7362 L 86.7526,-55.9635 L 86.618,-56.1756
 L 86.4579,-56.3691 L 86.2748,-56.541 L 86.0717,-56.6886 L 85.8515,-56.8096 L 85.618,-56.9021 L 85.3748,-56.9646
 L 85.1256,-56.996 L -0.12558,-56.996 L -0.374756,-56.9646 L -0.618027,-56.9021 L -0.851547,-56.8096 L -1.07164,-56.6886
 L -1.27484,-56.541 L -1.45793,-56.3691 L -1.61803,-56.1756 L -1.75261,-55.9635 L -1.85954,-55.7362 L -1.93716,-55.4974
 L -1.98422,-55.2507 L -2,-55 L -2,-0 L -1.98422,0.250656 L -1.93716,0.497375 L -1.85954,0.736237
 L -1.75261,0.963501 L -1.61803,1.17557 L -1.45793,1.36908 L -1.27484,1.54102 L -1.07164,1.68864 L -0.851547,1.80965
 L -0.618027,1.9021 L -0.374756,1.96457 L -0.12558,1.99605 L 85.1256,1.99605 z
M 62.9058,-50.503 L 62.7189,-50.5266 L 62.5365,-50.5734 L 62.3613,-50.6428 L 62.1963,-50.7335 L 62.0439,-50.8442
 L 61.9065,-50.9732 L 61.7865,-51.1183 L 61.6855,-51.2774 L 61.6053,-51.4478 L 61.5471,-51.627 L 61.5118,-51.812
 L 61.5,-52 L 61.5118,-52.188 L 61.5471,-52.373 L 61.6053,-52.5522 L 61.6855,-52.7226 L 61.7865,-52.8817
 L 61.9065,-53.0268 L 62.0439,-53.1558 L 62.1963,-53.2665 L 62.3613,-53.3572 L 62.5365,-53.4266 L 62.7189,-53.4734
 L 62.9058,-53.497 L 63.0942,-53.497 L 63.2811,-53.4734 L 63.4635,-53.4266 L 63.6387,-53.3572 L 63.8037,-53.2665
 L 63.9561,-53.1558 L 64.0934,-53.0268 L 64.2135,-52.8817 L 64.3145,-52.7226 L 64.3947,-52.5522 L 64.4529,-52.373
 L 64.4882,-52.188 L 64.5,-52 L 64.4882,-51.812 L 64.4529,-51.627 L 64.3947,-51.4478 L 64.3145,-51.2774
 L 64.2135,-51.1183 L 64.0934,-50.9732 L 63.9561,-50.8442 L 63.8037,-50.7335 L 63.6387,-50.6428 L 63.4635,-50.5734
 L 63.2811,-50.5266 L 63.0942,-50.503 z
M 4.90581,-50.503 L 4.71892,-50.5266 L 4.53647,-50.5734 L 4.36133,-50.6428 L 4.19626,-50.7335 L 4.04385,-50.8442
 L 3.90654,-50.9732 L 3.78647,-51.1183 L 3.68553,-51.2774 L 3.60533,-51.4478 L 3.54712,-51.627 L 3.51183,-51.812
 L 3.5,-52 L 3.51183,-52.188 L 3.54712,-52.373 L 3.60533,-52.5522 L 3.68553,-52.7226 L 3.78647,-52.8817
 L 3.90654,-53.0268 L 4.04385,-53.1558 L 4.19626,-53.2665 L 4.36133,-53.3572 L 4.53647,-53.4266 L 4.71892,-53.4734
 L 4.90581,-53.497 L 5.09418,-53.497 L 5.28107,-53.4734 L 5.46352,-53.4266 L 5.63866,-53.3572 L 5.80373,-53.2665
 L 5.95613,-53.1558 L 6.09344,-53.0268 L 6.21352,-52.8817 L 6.31445,-52.7226 L 6.39465,-52.5522 L 6.45287,-52.373
 L 6.48816,-52.188 L 6.5,-52 L 6.48816,-51.812 L 6.45287,-51.627 L 6.39465,-51.4478 L 6.31445,-51.2774
 L 6.21352,-51.1183 L 6.09344,-50.9732 L 5.95613,-50.8442 L 5.80373,-50.7335 L 5.63866,-50.6428 L 5.46352,-50.5734
 L 5.28107,-50.5266 L 5.09418,-50.503 z
M 62.9058,-0.502945 L 62.7189,-0.526566 L 62.5365,-0.57341 L 62.3613,-0.642746 L 62.1963,-0.733505 L 62.0439,-0.844223
 L 61.9065,-0.973175 L 61.7865,-1.11832 L 61.6855,-1.27736 L 61.6053,-1.4478 L 61.5471,-1.62695 L 61.5118,-1.812
 L 61.5,-2 L 61.5118,-2.18799 L 61.5471,-2.37303 L 61.6053,-2.55219 L 61.6855,-2.72263 L 61.7865,-2.88167
 L 61.9065,-3.02681 L 62.0439,-3.15576 L 62.1963,-3.26648 L 62.3613,-3.35724 L 62.5365,-3.42657 L 62.7189,-3.47342
 L 62.9058,-3.49704 L 63.0942,-3.49704 L 63.2811,-3.47342 L 63.4635,-3.42657 L 63.6387,-3.35724 L 63.8037,-3.26648
 L 63.9561,-3.15576 L 64.0934,-3.02681 L 64.2135,-2.88167 L 64.3145,-2.72263 L 64.3947,-2.55219 L 64.4529,-2.37303
 L 64.4882,-2.18799 L 64.5,-2 L 64.4882,-1.812 L 64.4529,-1.62695 L 64.3947,-1.4478 L 64.3145,-1.27736
 L 64.2135,-1.11832 L 64.0934,-0.973175 L 63.9561,-0.844223 L 63.8037,-0.733505 L 63.6387,-0.642746 L 63.4635,-0.57341
 L 63.2811,-0.526566 L 63.0942,-0.502945 z
M 4.90581,-0.502945 L 4.71892,-0.526566 L 4.53647,-0.57341 L 4.36133,-0.642746 L 4.19626,-0.733505 L 4.04385,-0.844223
 L 3.90654,-0.973175 L 3.78647,-1.11832 L 3.68553,-1.27736 L 3.60533,-1.4478 L 3.54712,-1.62695 L 3.51183,-1.812
 L 3.5,-2 L 3.51183,-2.18799 L 3.54712,-2.37303 L 3.60533,-2.55219 L 3.68553,-2.72263 L 3.78647,-2.88167
 L 3.90654,-3.02681 L 4.04385,-3.15576 L 4.19626,-3.26648 L 4.36133,-3.35724 L 4.53647,-3.42657 L 4.71892,-3.47342
 L 4.90581,-3.49704 L 5.09418,-3.49704 L 5.28107,-3.47342 L 5.46352,-3.42657 L 5.63866,-3.35724 L 5.80373,-3.26648
 L 5.95613,-3.15576 L 6.09344,-3.02681 L 6.21352,-2.88167 L 6.31445,-2.72263 L 6.39465,-2.55219 L 6.45287,-2.37303
 L 6.48816,-2.18799 L 6.5,-2 L 6.48816,-1.812 L 6.45287,-1.62695 L 6.39465,-1.4478 L 6.31445,-1.27736
 L 6.21352,-1.11832 L 6.09344,-0.973175 L 5.95613,-0.844223 L 5.80373,-0.733505 L 5.63866,-0.642746 L 5.46352,-0.57341
 L 5.28107,-0.526566 L 5.09418,-0.502945 z
" stroke="black" fill="lightgray" stroke-width="0.5"/>
</svg>
