<?xml version="1.0" standalone="no"?>
<!DOCTYPE svg PUBLIC "-//W3C//DTD SVG 1.1//EN" "http://www.w3.org/Graphics/SVG/1.1/DTD/svg11.dtd">
<svg width="84mm" height="54mm" viewBox="-2 -52 84 54" xmlns="http://www.w3.org/2000/svg" version="1.1">
<title>OpenSCAD Model</title>
<path d="
M 80.3748,1.96457 L 80.618,1.9021 L 80.8515,1.80965 L 81.0717,1.68864 L 81.2748,1.54102 L 81.4579,1.36908
 L 81.618,1.17557 L 81.7526,0.963501 L 81.8595,0.736237 L 81.9372,0.497375 L 81.9842,0.250656 L 82,-0
 L 82,-50 L 81.9842,-50.2507 L 81.9372,-50.4974 L 81.8595,-50.7362 L 81.7526,-50.9635 L 81.618,-51.1756
 L 81.4579,-51.3691 L 81.2748,-51.541 L 81.0717,-51.6886 L 80.8515,-51.8096 L 80.618,-51.9021 L 80.3748,-51.9646
 L 80.1256,-51.996 L -0.12558,-51.996 L -0.374756,-51.9646 L -0.618027,-51.9021 L -0.851547,-51.8096 L -1.07164,-51.6886
 L -1.27484,-51.541 L -1.45793,-51.3691 L -1.61803,-51.1756 L -1.75261,-50.9635 L -1.85954,-50.7362 L -1.93716,-50.4974
 L -1.98422,-50.2507 L -2,-50 L -2,-0 L -1.98422,0.250656 L -1.93716,0.497375 L -1.85954,0.736237
 L -1.75261,0.963501 L -1.61803,1.17557 L -1.45793,1.36908 L -1.27484,1.54102 L -1.07164,1.68864 L -0.851547,1.80965
 L -0.618027,1.9021 L -0.374756,1.96457 L -0.12558,1.99605 L 80.1256,1.99605 z
M 2.3744,-45.5039 L 2.12523,-45.5354 L 1.88196,-45.5979 L 1.64844,-45.6903 L 1.42834,-45.8113 L 1.22514,-45.959
 L 1.04205,-46.1309 L 0.881958,-46.3244 L 0.747375,-46.5365 L 0.640442,-46.7637 L 0.56282,-47.0026 L 0.515762,-47.2493
 L 0.5,-47.5 L 0.515762,-47.7507 L 0.56282,-47.9974 L 0.640442,-48.2362 L 0.747375,-48.4635 L 0.881958,-48.6756
 L 1.04205,-48.8691 L 1.22514,-49.041 L 1.42834,-49.1886 L 1.64844,-49.3096 L 1.88196,-49.4021 L 2.12523,-49.4646
 L 2.3744,-49.496 L 2.62558,-49.496 L 2.87476,-49.4646 L 3.11803,-49.4021 L 3.35155,-49.3096 L 3.57164,-49.1886
 L 3.77484,-49.041 L 3.95793,-48.8691 L 4.11803,-48.6756 L 4.25261,-48.4635 L 4.35954,-48.2362 L 4.43716,-47.9974
 L 4.48422,-47.7507 L 4.5,-47.5 L 4.48422,-47.2493 L 4.43716,-47.0026 L 4.35954,-46.7637 L 4.25261,-46.5365
 L 4.11803,-46.3244 L 3.95793,-46.1309 L 3.77484,-45.959 L 3.57164,-45.8113 L 3.35155,-45.6903 L 3.11803,-45.5979
 L 2.87476,-45.5354 L 2.62558,-45.5039 z
" stroke="black" fill="lightgray" stroke-width="0.5"/>
</svg>
