<?xml version="1.0" standalone="no"?>
<!DOCTYPE svg PUBLIC "-//W3C//DTD SVG 1.1//EN" "http://www.w3.org/Graphics/SVG/1.1/DTD/svg11.dtd">
<svg width="84mm" height="54mm" viewBox="-2 -52 84 54" xmlns="http://www.w3.org/2000/svg" version="1.1">
<title>OpenSCAD Model</title>
<path d="
M 80.3748,1.96457 L 80.618,1.9021 L 80.8515,1.80965 L 81.0717,1.68864 L 81.2748,1.54102 L 81.4579,1.36908
 L 81.618,1.17557 L 81.7526,0.963501 L 81.8595,0.736237 L 81.9372,0.497375 L 81.9842,0.250656 L 82,-0
 L 82,-50 L 81.9842,-50.2507 L 81.9372,-50.4974 L 81.8595,-50.7362 L 81.7526,-50.9635 L 81.618,-51.1756
 L 81.4579,-51.3691 L 81.2748,-51.541 L 81.0717,-51.6886 L 80.8515,-51.8096 L 80.618,-51.9021 L 80.3748,-51.9646
 L 80.1256,-51.996 L -0.12558,-51.996 L -0.374756,-51.9646 L -0.618027,-51.9021 L -0.851547,-51.8096 L -1.07164,-51.6886
 L -1.27484,-51.541 L -1.45793,-51.3691 L -1.61803,-51.1756 L -1.75261,-50.9635 L -1.85954,-50.7362 L -1.93716,-50.4974
 L -1.98422,-50.2507 L -2,-50 L -2,-0 L -1.98422,0.250656 L -1.93716,0.497375 L -1.85954,0.736237
 L -1.75261,0.963501 L -1.61803,1.17557 L -1.45793,1.36908 L -1.27484,1.54102 L -1.07164,1.68864 L -0.851547,1.80965
 L -0.618027,1.9021 L -0.374756,1.96457 L -0.12558,1.99605 L 80.1256,1.99605 z
M 4.8744,-43.0039 L 4.62523,-43.0354 L 4.38196,-43.0979 L 4.14844,-43.1903 L 3.92834,-43.3113 L 3.72514,-43.459
 L 3.54205,-43.6309 L 3.38196,-43.8244 L 3.24738,-44.0365 L 3.14044,-44.2637 L 3.06282,-44.5026 L 3.01576,-44.7493
 L 3,-45 L 3.01576,-45.2507 L 3.06282,-45.4974 L 3.14044,-45.7362 L 3.24738,-45.9635 L 3.38196,-46.1756
 L 3.54205,-46.3691 L 3.72514,-46.541 L 3.92834,-46.6886 L 4.14844,-46.8096 L 4.38196,-46.9021 L 4.62523,-46.9646
 L 4.8744,-46.996 L 5.12558,-46.996 L 5.37476,-46.9646 L 5.61803,-46.9021 L 5.85155,-46.8096 L 6.07164,-46.6886
 L 6.27484,-46.541 L 6.45793,-46.3691 L 6.61803,-46.1756 L 6.75261,-45.9635 L 6.85954,-45.7362 L 6.93716,-45.4974
 L 6.98422,-45.2507 L 7,-45 L 6.98422,-44.7493 L 6.93716,-44.5026 L 6.85954,-44.2637 L 6.75261,-44.0365
 L 6.61803,-43.8244 L 6.45793,-43.6309 L 6.27484,-43.459 L 6.07164,-43.3113 L 5.85155,-43.1903 L 5.61803,-43.0979
 L 5.37476,-43.0354 L 5.12558,-43.0039 z
" stroke="black" fill="lightgray" stroke-width="0.5"/>
</svg>
