<?xml version="1.0" standalone="no"?>
<!DOCTYPE svg PUBLIC "-//W3C//DTD SVG 1.1//EN" "http://www.w3.org/Graphics/SVG/1.1/DTD/svg11.dtd">
<svg width="90mm" height="59mm" viewBox="-2 -57 90 59" xmlns="http://www.w3.org/2000/svg" version="1.1">
<title>OpenSCAD Model</title>
<path d="
M 86.3748,1.96457 L 86.618,1.9021 L 86.8515,1.80965 L 87.0716,1.68864 L 87.2748,1.54102 L 87.4579,1.36908
 L 87.618,1.17557 L 87.7526,0.963501 L 87.8595,0.736237 L 87.9372,0.497375 L 87.9842,0.250656 L 88,-0
 L 88,-55 L 87.9842,-55.2507 L 87.9372,-55.4974 L 87.8595,-55.7362 L 87.7526,-55.9635 L 87.618,-56.1756
 L 87.4579,-56.3691 L 87.2748,-56.541 L 87.0716,-56.6886 L 86.8515,-56.8096 L 86.618,-56.9021 L 86.3748,-56.9646
 L 86.1256,-56.996 L -0.12558,-56.996 L -0.374756,-56.9646 L -0.618027,-56.9021 L -0.851547,-56.8096 L -1.07164,-56.6886
 L -1.27484,-56.541 L -1.45793,-56.3691 L -1.61803,-56.1756 L -1.75261,-55.9635 L -1.85954,-55.7362 L -1.93716,-55.4974
 L -1.98422,-55.2507 L -2,-55 L -2,-0 L -1.98422,0.250656 L -1.93716,0.497375 L -1.85954,0.736237
 L -1.75261,0.963501 L -1.61803,1.17557 L -1.45793,1.36908 L -1.27484,1.54102 L -1.07164,1.68864 L -0.851547,1.80965
 L -0.618027,1.9021 L -0.374756,1.96457 L -0.12558,1.99605 L 86.1256,1.99605 z
" stroke="black" fill="lightgray" stroke-width="0.5"/>
</svg>
