<?xml version="1.0" standalone="no"?>
<!DOCTYPE svg PUBLIC "-//W3C//DTD SVG 1.1//EN" "http://www.w3.org/Graphics/SVG/1.1/DTD/svg11.dtd">
<svg width="89mm" height="59mm" viewBox="-2 -57 89 59" xmlns="http://www.w3.org/2000/svg" version="1.1">
<title>OpenSCAD Model</title>
<path d="
M 85.3748,1.96457 L 85.618,1.9021 L 85.8515,1.80965 L 86.0717,1.68864 L 86.2748,1.54102 L 86.4579,1.36908
 L 86.618,1.17557 L 86.7526,0.963501 L 86.8595,0.736237 L 86.9372,0.497375 L 86.9842,0.250656 L 87,-0
 L 87,-55 L 86.9842,-55.2507 L 86.9372,-55.4974 L 86.8595,-55.7362 L 86.7526,-55.9635 L 86.618,-56.1756
 L 86.4579,-56.3691 L 86.2748,-56.541 L 86.0717,-56.6886 L 85.8515,-56.8096 L 85.618,-56.9021 L 85.3748,-56.9646
 L 85.1256,-56.996 L -0.12558,-56.996 L -0.374756,-56.9646 L -0.618027,-56.9021 L -0.851547,-56.8096 L -1.07164,-56.6886
 L -1.27484,-56.541 L -1.45793,-56.3691 L -1.61803,-56.1756 L -1.75261,-55.9635 L -1.85954,-55.7362 L -1.93716,-55.4974
 L -1.98422,-55.2507 L -2,-55 L -2,-0 L -1.98422,0.250656 L -1.93716,0.497375 L -1.85954,0.736237
 L -1.75261,0.963501 L -1.61803,1.17557 L -1.45793,1.36908 L -1.27484,1.54102 L -1.07164,1.68864 L -0.851547,1.80965
 L -0.618027,1.9021 L -0.374756,1.96457 L -0.12558,1.99605 L 85.1256,1.99605 z
M 4.8744,-43.0039 L 4.62523,-43.0354 L 4.38196,-43.0979 L 4.14844,-43.1903 L 3.92834,-43.3113 L 3.72514,-43.459
 L 3.54205,-43.6309 L 3.38196,-43.8244 L 3.24738,-44.0365 L 3.14044,-44.2637 L 3.06282,-44.5026 L 3.01576,-44.7493
 L 3,-45 L 3.01576,-45.2507 L 3.06282,-45.4974 L 3.14044,-45.7362 L 3.24738,-45.9635 L 3.38196,-46.1756
 L 3.54205,-46.3691 L 3.72514,-46.541 L 3.92834,-46.6886 L 4.14844,-46.8096 L 4.38196,-46.9021 L 4.62523,-46.9646
 L 4.8744,-46.996 L 5.12558,-46.996 L 5.37476,-46.9646 L 5.61803,-46.9021 L 5.85155,-46.8096 L 6.07164,-46.6886
 L 6.27484,-46.541 L 6.45793,-46.3691 L 6.61803,-46.1756 L 6.75261,-45.9635 L 6.85954,-45.7362 L 6.93716,-45.4974
 L 6.98422,-45.2507 L 7,-45 L 6.98422,-44.7493 L 6.93716,-44.5026 L 6.85954,-44.2637 L 6.75261,-44.0365
 L 6.61803,-43.8244 L 6.45793,-43.6309 L 6.27484,-43.459 L 6.07164,-43.3113 L 5.85155,-43.1903 L 5.61803,-43.0979
 L 5.37476,-43.0354 L 5.12558,-43.0039 z
" stroke="black" fill="lightgray" stroke-width="0.5"/>
</svg>
