<?xml version="1.0" standalone="no"?>
<!DOCTYPE svg PUBLIC "-//W3C//DTD SVG 1.1//EN" "http://www.w3.org/Graphics/SVG/1.1/DTD/svg11.dtd">
<svg width="90mm" height="178mm" viewBox="-2 -176 90 178" xmlns="http://www.w3.org/2000/svg" version="1.1">
<title>OpenSCAD Model</title>
<path d="
M 86.3748,-120.435 L 86.618,-120.498 L 86.8515,-120.59 L 87.0716,-120.711 L 87.2748,-120.859 L 87.4579,-121.031
 L 87.618,-121.224 L 87.7526,-121.436 L 87.8595,-121.664 L 87.9372,-121.903 L 87.9842,-122.149 L 88,-122.4
 L 88,-173.4 L 87.9842,-173.651 L 87.9372,-173.897 L 87.8595,-174.136 L 87.7526,-174.363 L 87.618,-174.576
 L 87.4579,-174.769 L 87.2748,-174.941 L 87.0716,-175.089 L 86.8515,-175.21 L 86.618,-175.302 L 86.3748,-175.365
 L 86.1256,-175.396 L -0.12558,-175.396 L -0.374756,-175.365 L -0.618027,-175.302 L -0.851547,-175.21 L -1.07164,-175.089
 L -1.27484,-174.941 L -1.45793,-174.769 L -1.61803,-174.576 L -1.75261,-174.363 L -1.85954,-174.136 L -1.93716,-173.897
 L -1.98422,-173.651 L -2,-173.4 L -2,-122.4 L -1.98422,-122.149 L -1.93716,-121.903 L -1.85954,-121.664
 L -1.75261,-121.436 L -1.61803,-121.224 L -1.45793,-121.031 L -1.27484,-120.859 L -1.07164,-120.711 L -0.851547,-120.59
 L -0.618027,-120.498 L -0.374756,-120.435 L -0.12558,-120.404 L 86.1256,-120.404 z
M 86.3748,-59.2354 L 86.618,-59.2979 L 86.8515,-59.3904 L 87.0716,-59.5114 L 87.2748,-59.659 L 87.4579,-59.8309
 L 87.618,-60.0244 L 87.7526,-60.2365 L 87.8595,-60.4638 L 87.9372,-60.7026 L 87.9842,-60.9493 L 88,-61.2
 L 88,-112.2 L 87.9842,-112.451 L 87.9372,-112.697 L 87.8595,-112.936 L 87.7526,-113.163 L 87.618,-113.376
 L 87.4579,-113.569 L 87.2748,-113.741 L 87.0716,-113.889 L 86.8515,-114.01 L 86.618,-114.102 L 86.3748,-114.165
 L 86.1256,-114.196 L -0.12558,-114.196 L -0.374756,-114.165 L -0.618027,-114.102 L -0.851547,-114.01 L -1.07164,-113.889
 L -1.27484,-113.741 L -1.45793,-113.569 L -1.61803,-113.376 L -1.75261,-113.163 L -1.85954,-112.936 L -1.93716,-112.697
 L -1.98422,-112.451 L -2,-112.2 L -2,-61.2 L -1.98422,-60.9493 L -1.93716,-60.7026 L -1.85954,-60.4638
 L -1.75261,-60.2365 L -1.61803,-60.0244 L -1.45793,-59.8309 L -1.27484,-59.659 L -1.07164,-59.5114 L -0.851547,-59.3904
 L -0.618027,-59.2979 L -0.374756,-59.2354 L -0.12558,-59.2039 L 86.1256,-59.2039 z
M 86.3748,1.96457 L 86.618,1.9021 L 86.8515,1.80965 L 87.0717,1.68864 L 87.2748,1.54102 L 87.4579,1.36908
 L 87.618,1.17557 L 87.7526,0.963501 L 87.8595,0.736237 L 87.9372,0.497375 L 87.9842,0.250656 L 88,-0
 L 88,-51 L 87.9842,-51.2507 L 87.9372,-51.4974 L 87.8595,-51.7362 L 87.7526,-51.9635 L 87.618,-52.1756
 L 87.4579,-52.3691 L 87.2748,-52.541 L 87.0717,-52.6886 L 86.8515,-52.8096 L 86.618,-52.9021 L 86.3748,-52.9646
 L 86.1256,-52.996 L -0.12558,-52.996 L -0.374756,-52.9646 L -0.618027,-52.9021 L -0.851547,-52.8096 L -1.07164,-52.6886
 L -1.27484,-52.541 L -1.45793,-52.3691 L -1.61803,-52.1756 L -1.75261,-51.9635 L -1.85954,-51.7362 L -1.93716,-51.4974
 L -1.98422,-51.2507 L -2,-51 L -2,-0 L -1.98422,0.250656 L -1.93716,0.497375 L -1.85954,0.736237
 L -1.75261,0.963501 L -1.61803,1.17557 L -1.45793,1.36908 L -1.27484,1.54102 L -1.07164,1.68864 L -0.851547,1.80965
 L -0.618027,1.9021 L -0.374756,1.96457 L -0.12558,1.99605 L 86.1256,1.99605 z
M 0,0.5 L 0,-51.5 L 61,-51.5 L 61,0.5 z
M 63,0.5 L 63,-50.5 L 86,-50.5 L 86,0.5 z
" stroke="black" fill="lightgray" stroke-width="0.5"/>
</svg>
